<?xml version="1.0" encoding="UTF-8" standalone="no"?>
<!-- Created with Inkscape (http://www.inkscape.org/) -->

<svg
   width="185.05714mm"
   height="143.93333mm"
   viewBox="0 0 185.05714 143.93333"
   version="1.1"
   id="svg5"
   inkscape:version="1.1.2 (0a00cf5339, 2022-02-04, custom)"
   sodipodi:docname="TR 9573-13 glyph.svg"
   xmlns:inkscape="http://www.inkscape.org/namespaces/inkscape"
   xmlns:sodipodi="http://sodipodi.sourceforge.net/DTD/sodipodi-0.dtd"
   xmlns="http://www.w3.org/2000/svg"
   xmlns:svg="http://www.w3.org/2000/svg">
  <sodipodi:namedview
     id="namedview7"
     pagecolor="#ffffff"
     bordercolor="#666666"
     borderopacity="1.0"
     inkscape:pageshadow="2"
     inkscape:pageopacity="0.0"
     inkscape:pagecheckerboard="0"
     inkscape:document-units="mm"
     showgrid="false"
     inkscape:zoom="0.74029882"
     inkscape:cx="-42.550385"
     inkscape:cy="185.06041"
     inkscape:window-width="1920"
     inkscape:window-height="1017"
     inkscape:window-x="0"
     inkscape:window-y="0"
     inkscape:window-maximized="1"
     inkscape:current-layer="layer1" />
  <defs
     id="defs2" />
  <g
     inkscape:label="Layer 1"
     inkscape:groupmode="layer"
     id="layer1"
     transform="translate(-210.44457,-101.47701)"
     style="display:inline">
    <g
       id="use5062-3"
       style="fill:#000000;fill-opacity:1"
       transform="matrix(19.938817,0,0,19.938817,194.55583,223.29072)">
      <path
         style="stroke:none"
         d="M 10.078125,0.25 H 3.71875 v -1.296875 l -1.5,1.25 -0.09375,0.1875 1.046875,0.28125 0.296875,0.125 -0.359375,0.28125 -1.125,-0.09375 -0.90625,0.125 -0.25,-0.0625 L 0.796875,0.765625 1.09375,-0.09375 1.203125,-1.203125 1.5625,-1.5 1.796875,-0.484375 1.71875,-0.09375 1.875,-0.171875 l 1.84375,-1.5625 v -1.1875 H 1.359375 l 2.359375,-1.71875 v -1.46875 H 4.1875 V -4.96875 L 5.75,-6.109375 H 6.546875 L 4.1875,-4.40625 v 1.015625 H 6.546875 L 4.1875,-1.4375 v 1.21875 h 5.890625 z m -4.875,-3.171875 h -0.90625 v 0.71875 z m -1.375,-0.46875 V -4.125 L 2.84375,-3.390625 Z m 0,0"
         id="path10729" />
    </g>
  </g>
</svg>
